<svg height="512pt" viewBox="0 0 512 512" width="512pt" xmlns="http://www.w3.org/2000/svg"><path d="m512 256c0 141.386719-114.613281 256-256 256s-256-114.613281-256-256 114.613281-256 256-256 256 114.613281 256 256zm0 0" fill="#35495e"/><path d="m414.101562 115.199219c-20.492187-6.199219-41.792968-9.324219-63.203124-9.269531-27.234376-.050782-54.238282 4.980468-79.625 14.832031h-.089844c-21.375 8.277343-41.328125 19.832031-59.144532 34.25h-.089843c-28.847657 23.367187-51.417969 53.554687-65.675781 87.835937-7.914063-49.878906 1.5625-100.960937 26.835937-144.683594 2.648437-4.589843 5.472656-9.09375 8.386719-13.507812 8.828125-13.011719 19.039062-25.027344 30.453125-35.839844 14.476562-3.128906 29.242187-4.699218 44.050781-4.679687 60.445312-.039063 118.003906 25.832031 158.101562 71.0625zm0 0" fill="#f18d46"/><path d="m467.863281 256c.019531 22.902344-3.710937 45.65625-11.035156 67.355469-3.71875-15.738281-9.167969-31.011719-16.242187-45.550781-2.382813-4.679688-4.855469-9.445313-7.503907-14.035157-13.585937-23.613281-31.457031-44.480469-52.703125-61.53125v-.085937c-17.875-14.382813-37.890625-25.882813-59.320312-34.074219-34.675782-13.40625-72.160156-17.898437-109.019532-13.066406 17.816407-14.417969 37.769532-25.972657 59.144532-34.25h.089844c25.386718-9.851563 52.390624-14.882813 79.625-14.832031 21.410156-.054688 42.710937 3.070312 63.203124 9.269531h.089844c34.609375 38.726562 53.722656 88.859375 53.671875 140.800781zm0 0" fill="#f3d55b"/><path d="m456.828125 323.355469v.085937c-24.183594 71.617188-84.585937 124.996094-158.632813 140.183594 15.367188-14.644531 28.566407-31.410156 39.195313-49.789062 44.691406-77.699219 38.25-174.65625-16.332031-245.757813 21.429687 8.191406 41.445312 19.691406 59.320312 34.074219v.085937c21.246094 17.050781 39.117188 37.917969 52.703125 61.53125 2.648438 4.589844 5.121094 9.355469 7.503907 14.035157 7.074218 14.539062 12.523437 29.8125 16.242187 45.550781zm0 0" fill="#3b97d3"/><path d="m298.550781 356.988281c-17.871093 14.386719-37.851562 25.941407-59.234375 34.25-25.429687 9.8125-52.457031 14.839844-79.714844 14.832031-5.382812 0-10.679687-.179687-15.886718-.621093-15.332032-1.121094-30.507813-3.816407-45.289063-8.03125h-.085937c-50.382813-56.085938-67.128906-134.734375-43.960938-206.476563 17.398438 70.007813 67.835938 127.132813 135.148438 153.070313 34.695312 13.335937 72.167968 17.796875 109.023437 12.976562zm0 0" fill="#cc66a1"/><path d="m364.316406 269.152344c-14.261718 34.300781-36.867187 64.496094-65.765625 87.835937-36.855469 4.820313-74.328125.359375-109.023437-12.976562-22.765625-29.507813-37.648438-64.320313-43.253906-101.164063 14.257812-34.28125 36.828124-64.46875 65.675781-87.835937h.089843c36.859376-4.832031 74.34375-.339844 109.019532 13.066406 22.695312 29.515625 37.570312 64.28125 43.257812 101.074219zm0 0" fill="#35495e"/><path d="m173.109375 98.164062c-44.601563 77.761719-38.128906 174.707032 16.417969 245.847657-67.3125-25.9375-117.75-83.0625-135.148438-153.070313 23.40625-72.09375 83.453125-126.253906 157.570313-142.125-11.414063 10.8125-21.625 22.828125-30.453125 35.839844-2.914063 4.414062-5.738282 8.917969-8.386719 13.507812zm0 0" fill="#cc4b4c"/><path d="m337.390625 413.835938c-10.628906 18.378906-23.828125 35.144531-39.195313 49.789062-13.882812 2.847656-28.023437 4.265625-42.195312 4.238281-60.164062.046875-117.488281-25.582031-157.574219-70.445312 14.78125 4.214843 29.957031 6.910156 45.289063 8.03125 5.207031.441406 10.503906.621093 15.886718.621093 27.257813.007813 54.285157-5.019531 79.714844-14.832031 56.582032-21.929687 101.738282-66.035156 125-122.085937 7.878906 49.890625-1.625 100.972656-26.925781 144.683594zm0 0" fill="#8697cb"/></svg>