<?xml version="1.0" encoding="iso-8859-1"?>
<!-- Generator: Adobe Illustrator 19.0.0, SVG Export Plug-In . SVG Version: 6.00 Build 0)  -->
<svg version="1.1" id="Layer_1" xmlns="http://www.w3.org/2000/svg" xmlns:xlink="http://www.w3.org/1999/xlink" x="0px" y="0px"
	 viewBox="0 0 512 512" style="enable-background:new 0 0 512 512;" xml:space="preserve">
<path style="fill:#5B5D6E;" d="M37.926,208.592v28.444c0,120.439,97.634,218.074,218.074,218.074s218.074-97.636,218.074-218.074
	v-28.444H37.926z"/>
<circle style="fill:#464655;" cx="256" cy="341.333" r="66.37"/>
<circle style="fill:#5B5D6E;" cx="256" cy="341.333" r="37.926"/>
<circle style="fill:#464655;" cx="256" cy="341.333" r="18.963"/>
<g>
	<circle style="fill:#FFFFFF;" cx="277.333" cy="320" r="16.593"/>
	<circle style="fill:#FFFFFF;" cx="230.151" cy="367.182" r="9.481"/>
</g>
<path style="fill:#464655;" d="M37.926,208.592v28.444c0,121.476,99.323,219.753,221.191,218.053
	c0.226-2.068-0.123,1.121,0.104-0.948c-55.054-9.329-99.155-87.945-106.407-188.032c-0.396-5.46,4.03-10.11,9.504-10.11h310.884
	c0.539-6.254,0.872-12.568,0.872-18.963v-28.444L37.926,208.592L37.926,208.592z"/>
<path style="fill:#D5DCED;" d="M493.037,56.889H18.963C8.491,56.889,0,65.378,0,75.852v105.922c0,5.029,1.998,9.852,5.555,13.408
	l32.371,32.373h436.148l32.371-32.372c3.557-3.556,5.555-8.379,5.555-13.408V75.852C512,65.378,503.509,56.889,493.037,56.889z"/>
<g>
	<path style="fill:#C7CFE2;" d="M0,180.148v1.627c0,5.029,1.998,9.852,5.555,13.408l32.371,32.372h436.148l32.371-32.372
		c3.557-3.556,5.555-8.379,5.555-13.408v-1.627H0z"/>
	<path style="fill:#C7CFE2;" d="M132.741,181.774V75.852c0-10.473,4.088-18.963,9.131-18.963H18.963C8.491,56.889,0,65.378,0,75.852
		v105.922c0,5.029,1.998,9.852,5.555,13.408l32.371,32.373h113.075l-15.586-32.372C133.702,191.626,132.741,186.803,132.741,181.774
		z"/>
</g>
<path style="fill:#AFB9D2;" d="M0,180.148v1.627c0,5.029,1.998,9.852,5.555,13.408l32.371,32.372h113.075l-15.586-32.372
	c-1.713-3.556-2.674-8.379-2.674-13.408v-1.627H0z"/>
<g>
</g>
<g>
</g>
<g>
</g>
<g>
</g>
<g>
</g>
<g>
</g>
<g>
</g>
<g>
</g>
<g>
</g>
<g>
</g>
<g>
</g>
<g>
</g>
<g>
</g>
<g>
</g>
<g>
</g>
</svg>
