<?xml version="1.0" encoding="iso-8859-1"?>
<!-- Generator: Adobe Illustrator 19.0.0, SVG Export Plug-In . SVG Version: 6.00 Build 0)  -->
<svg version="1.1" id="Layer_1" xmlns="http://www.w3.org/2000/svg" xmlns:xlink="http://www.w3.org/1999/xlink" x="0px" y="0px"
	 viewBox="0 0 512 512" style="enable-background:new 0 0 512 512;" xml:space="preserve">
<polygon style="fill:#AFB9D2;" points="264.828,331.174 220.69,331.174 211.862,287.036 273.655,287.036 "/>
<path style="fill:#C3CCE0;" d="M192.404,272.22l-1.724,9.463c-1.747,9.592,4.614,18.786,14.207,20.532l79.136,14.412
	c9.593,1.747,18.786-4.615,20.533-14.207l1.724-9.463L192.404,272.22z"/>
<path style="fill:#AFB9D2;" d="M463.661,311.015l-26.055-4.745l12.652-69.478l34.739,6.326l-11.071,60.793
	C473.054,308.708,468.457,311.888,463.661,311.015z"/>
<path style="fill:#D7DEED;" d="M425.759,322.058L43.629,252.47c-9.593-1.747-15.954-10.94-14.207-20.533l14.233-78.163
	l416.868,75.913l-14.233,78.163C444.544,317.445,435.351,323.805,425.759,322.058z"/>
<path style="fill:#EFF2FA;" d="M32.614,115.873l-6.326,34.739c-1.747,9.593,4.614,18.786,14.207,20.533l107.197,19.521
	c9.214,1.677,17.383,6.947,22.711,14.648l18.872,27.276c5.329,7.701,13.498,12.97,22.711,14.648l236.393,43.048
	c7.625,1.388,15.265-2.358,18.835-9.238l43.788-84.393c2.735-5.272-0.41-11.687-6.254-12.75L53.145,101.667
	C43.553,99.92,34.36,106.28,32.614,115.873z"/>
<path style="fill:#D7DEED;" d="M264.828,331.174H220.69c-4.875,0-8.828,3.953-8.828,8.828v7.47l-194.207-7.47v44.138l229.517-8.828
	c14.626,0,26.483-11.857,26.483-26.483v-8.828C273.655,335.126,269.703,331.174,264.828,331.174z"/>
<path style="fill:#C3CCE0;" d="M17.655,410.622H8.828c-4.875,0-8.828-3.953-8.828-8.828v-79.448c0-4.875,3.953-8.828,8.828-8.828
	h8.828c9.751,0,17.655,7.904,17.655,17.655v61.793C35.31,402.718,27.406,410.622,17.655,410.622z"/>
<g>
</g>
<g>
</g>
<g>
</g>
<g>
</g>
<g>
</g>
<g>
</g>
<g>
</g>
<g>
</g>
<g>
</g>
<g>
</g>
<g>
</g>
<g>
</g>
<g>
</g>
<g>
</g>
<g>
</g>
</svg>
